:SAMPLES-PER-SECOND 30
:FULLY-SPECIFIED
:DEGREES
229
root  -3.10688 40.8975 1.16085 173.312 -77.6183 -174.767
RightUpLeg  4.51077 -0.549609 -1.09999
RightLeg  -1.41875 -8.68014 -0.265001
RightFoot  -0.301632 -0.414895 4.26858
RightToes  -3.13006e-008 1.75238e-005 3.56266e-009
Spine  -8.28386 -2.1016 -4.75257
Spine1  12.9425 -2.6397 2.65342
HEad  -19.5803 9.45974 17.574
LeftShoulder1  3.0746 -6.2472 -25.3814
LeftArm  -29.2275 5.06491 -51.9716
LeftForeArm  137.256 -71.3882 -146.542
LeftHand  -0.298052 -2.25612 4.7316
RightShoulder  2.61644 6.03335 21.1283
RightArm  -20.4603 31.7961 31.087
RightForeArm  92.6048 79.7152 95.6488
RightHand  -0.835132 7.23295 -8.00976
LeftUpLeg  6.96534 2.02682 2.16491
LeftLeg  -1.88994 23.9763 -0.950821
LeftFoot  -2.34737 0.271749 -3.29012
LeftToes  4.76866e-008 1.46233e-008 1.30548e-009
230
root  -3.11563 40.8976 1.1381 172.89 -77.7643 -174.591
RightUpLeg  4.7931 -0.626032 -1.08159
RightLeg  -1.35464 -8.72148 -0.215792
RightFoot  -0.355282 -0.409372 4.20144
RightToes  -3.13006e-008 1.75238e-005 3.56266e-009
Spine  -8.74223 -1.89772 -4.84863
Spine1  13.5333 -2.51838 2.99032
HEad  -19.996 9.67432 19.0188
LeftShoulder1  3.03792 -6.20327 -25.1328
LeftArm  -27.4574 2.52987 -52.0271
LeftForeArm  140.399 -72.5334 -144.778
LeftHand  -0.291662 -2.17999 4.66005
RightShoulder  2.87901 6.78654 21.7209
RightArm  -14.8592 32.9543 34.8377
RightForeArm  91.6923 80.0013 89.5461
RightHand  -0.579577 6.77314 -5.88504
LeftUpLeg  7.18108 2.06401 2.22887
LeftLeg  -1.74705 23.7604 -0.837484
LeftFoot  -2.40973 0.279322 -3.41634
LeftToes  4.76866e-008 1.46233e-008 1.30548e-009
231
root  -3.13035 40.8941 1.10687 172.34 -78.1746 -174.374
RightUpLeg  5.2537 -0.687809 -1.03272
RightLeg  -1.3614 -9.08623 -0.209972
RightFoot  -0.457517 -0.410119 4.26927
RightToes  -3.13006e-008 1.75238e-005 3.56266e-009
Spine  -9.02138 -1.59911 -4.8788
Spine1  14.1542 -2.29522 3.28037
HEad  -20.2651 8.63293 20.4985
LeftShoulder1  2.97098 -6.12679 -24.6665
LeftArm  -25.5587 -0.292082 -52.3563
LeftForeArm  145.83 -73.7692 -142.998
LeftHand  -0.260584 -2.43124 4.07679
RightShoulder  2.95257 6.76669 22.5192
RightArm  -8.88749 32.699 37.3566
RightForeArm  89.5141 80.0458 85.8442
RightHand  -0.508087 6.46192 -5.31658
LeftUpLeg  7.48894 2.15369 2.33659
LeftLeg  -1.6482 23.2568 -0.795156
LeftFoot  -2.46889 0.274383 -3.34853
LeftToes  4.76866e-008 1.46233e-008 1.30548e-009
232
root  -3.15658 40.889 1.07687 171.848 -78.801 -174.152
RightUpLeg  5.63638 -0.875618 -1.08718
RightLeg  -1.25315 -9.4556 -0.105295
RightFoot  -0.663718 -0.39976 4.22635
RightToes  -3.13006e-008 1.75238e-005 3.56266e-009
Spine  -9.45352 -1.36302 -5.09513
Spine1  14.6926 -2.1861 3.80751
HEad  -20.209 8.34443 21.3962
LeftShoulder1  3.12041 -6.5229 -24.9548
LeftArm  -24.1976 -2.27002 -51.43
LeftForeArm  156.017 -74.6572 -142.685
LeftHand  -0.0858221 -4.39776 1.38912
RightShoulder  3.27908 7.6986 23.0893
RightArm  -4.62013 31.4773 38.841
RightForeArm  89.1915 80.0735 84.5026
RightHand  -0.24077 5.76663 -2.75134
LeftUpLeg  7.69768 2.22051 2.42765
LeftLeg  -1.50396 22.5362 -0.727138
LeftFoot  -2.54476 0.277825 -3.4121
LeftToes  4.76866e-008 1.46233e-008 1.30548e-009
233
root  -3.17671 40.8869 1.04405 171.601 -79.4512 -174.11
RightUpLeg  5.95894 -0.988861 -1.12179
RightLeg  -1.20047 -9.96801 -0.0744234
RightFoot  -0.779059 -0.391022 4.16961
RightToes  -3.13006e-008 1.75238e-005 3.56266e-009
Spine  -9.82958 -1.1616 -5.29766
Spine1  15.0579 -2.09065 4.27653
HEad  -19.6154 7.68608 21.9021
LeftShoulder1  3.06852 -6.37541 -24.8905
LeftArm  -22.9737 -5.08909 -50.5986
LeftForeArm  169.097 -75.5195 -142.894
LeftHand  0.443694 -7.13676 -3.76437
RightShoulder  3.36338 8.01312 23.0044
RightArm  -0.00864827 30.6076 41.0368
RightForeArm  86.9884 80.0598 80.7976
RightHand  0.12479 4.29147 1.1571
LeftUpLeg  7.82761 2.29865 2.49467
LeftLeg  -1.38063 21.7921 -0.72109
LeftFoot  -2.61923 0.272071 -3.33359
LeftToes  4.76866e-008 1.46233e-008 1.30548e-009
234
root  -3.21792 40.8862 1.0212 171.553 -80.1991 -174.09
RightUpLeg  6.20753 -1.16104 -1.22076
RightLeg  -1.30864 -10.5205 0.0371446
RightFoot  -0.859587 -0.386167 4.14725
RightToes  -3.13006e-008 1.75238e-005 3.56266e-009
Spine  -10.6785 -1.05502 -4.63303
Spine1  15.5895 -1.753 3.39875
HEad  -18.9793 6.67879 22.637
LeftShoulder1  3.02812 -6.44202 -24.2449
LeftArm  -21.0586 -7.88589 -49.2673
LeftForeArm  178.222 -76.043 -143.127
LeftHand  1.16961 -8.79026 -9.15719
RightShoulder  3.52645 8.3217 23.6615
RightArm  4.86448 30.2477 42.372
RightForeArm  81.3314 79.8412 72.3838
RightHand  0.460997 4.38529 5.20192
LeftUpLeg  7.83969 2.26879 2.49317
LeftLeg  -1.39371 21.0919 -0.723872
LeftFoot  -2.59445 0.270716 -3.32477
LeftToes  4.76866e-008 1.46233e-008 1.30548e-009
